#N canvas 781 402 151 315 10;
#X obj 17 7 tgl 15 0 empty empty empty 17 7 0 10 -262144 -1 -1 1 1
;
#X obj 17 35 metro 1500;
#X obj 17 65 send beat;
#X obj 32 122 receive beat;
#X obj 46 149 delay 100;
#X msg 84 192 0;
#X msg 32 189 0.3;
#X obj 17 243 *~;
#X obj 17 275 dac~;
#X floatatom 32 220 5 0 0 0 - - -;
#X obj 17 101 osc~ 440;
#X connect 0 0 1 0;
#X connect 1 0 2 0;
#X connect 3 0 6 0;
#X connect 3 0 4 0;
#X connect 4 0 5 0;
#X connect 5 0 9 0;
#X connect 6 0 9 0;
#X connect 7 0 8 0;
#X connect 7 0 8 1;
#X connect 9 0 7 1;
#X connect 10 0 7 0;
