#N canvas 751 328 465 316 10;
#X obj 17 7 tgl 15 0 empty empty empty 17 7 0 10 -262144 -1 -1 1 1
;
#X obj 17 35 metro 1500;
#X obj 17 65 send beat;
#X obj 32 122 receive beat;
#X obj 46 149 delay 100;
#X msg 84 192 0;
#X msg 32 189 0.3;
#X obj 17 243 *~;
#X obj 17 275 dac~;
#X floatatom 32 220 5 0 0 0 - - -;
#X obj 147 123 receive beat;
#X obj 161 150 delay 100;
#X msg 199 193 0;
#X msg 147 190 0.3;
#X obj 132 244 *~;
#X floatatom 147 221 5 0 0 0 - - -;
#X obj 132 102 osc~ 1000;
#X obj 17 101 osc~ 2000;
#X obj 254 123 receive beat;
#X obj 268 150 delay 100;
#X msg 306 193 0;
#X msg 254 190 0.3;
#X obj 239 244 *~;
#X obj 239 276 dac~;
#X floatatom 254 221 5 0 0 0 - - -;
#X obj 369 124 receive beat;
#X obj 383 151 delay 100;
#X msg 421 194 0;
#X msg 369 191 0.3;
#X obj 354 245 *~;
#X floatatom 369 222 5 0 0 0 - - -;
#X obj 239 102 osc~ 3000;
#X obj 354 103 osc~ 4000;
#X obj 95 65 send beat;
#X obj 174 65 send beat;
#X obj 253 65 send beat;
#X obj 95 35 metro 3500;
#X obj 174 35 metro 5500;
#X obj 253 35 metro 6500;
#X connect 0 0 1 0;
#X connect 0 0 36 0;
#X connect 0 0 37 0;
#X connect 0 0 38 0;
#X connect 1 0 2 0;
#X connect 3 0 6 0;
#X connect 3 0 4 0;
#X connect 4 0 5 0;
#X connect 5 0 9 0;
#X connect 6 0 9 0;
#X connect 7 0 8 0;
#X connect 9 0 7 1;
#X connect 10 0 13 0;
#X connect 10 0 11 0;
#X connect 11 0 12 0;
#X connect 12 0 15 0;
#X connect 13 0 15 0;
#X connect 14 0 8 1;
#X connect 15 0 14 1;
#X connect 16 0 14 0;
#X connect 17 0 7 0;
#X connect 18 0 21 0;
#X connect 18 0 19 0;
#X connect 19 0 20 0;
#X connect 20 0 24 0;
#X connect 21 0 24 0;
#X connect 22 0 23 0;
#X connect 24 0 22 1;
#X connect 25 0 28 0;
#X connect 25 0 26 0;
#X connect 26 0 27 0;
#X connect 27 0 30 0;
#X connect 28 0 30 0;
#X connect 29 0 23 1;
#X connect 30 0 29 1;
#X connect 31 0 22 0;
#X connect 32 0 29 0;
#X connect 36 0 33 0;
#X connect 37 0 34 0;
#X connect 38 0 35 0;
