#N canvas 730 168 605 422 10;
#X obj 17 7 tgl 15 0 empty empty empty 17 7 0 10 -262144 -1 -1 0 1
;
#X obj 17 35 metro 1500;
#X obj 17 65 send beat;
#X obj 120 30 receive beat;
#X obj 134 57 delay 100;
#X msg 172 100 0;
#X msg 120 97 0.3;
#X obj 105 151 *~;
#X floatatom 120 128 5 0 0 0 - - -;
#X obj 105 9 osc~ 440;
#X obj 141 180 send~ out;
#X obj 105 204 send~ mtapdelay;
#X obj 289 55 receive~ out;
#X text 373 51 =;
#X obj 393 53 r~ out;
#X obj 289 99 dac~;
#X text 288 30 main out ---------------;
#X obj 22 273 r~ mtapdelay;
#X obj 22 298 delwrite~ dline1 2000;
#X obj 22 348 *~ 0.8;
#X obj 22 375 dac~;
#X obj 161 272 r~ mtapdelay;
#X obj 140 375 dac~;
#X obj 161 347 *~ 0.6;
#X obj 161 297 delwrite~ dline2 2000;
#X obj 161 322 delread~ dline2 800;
#X obj 22 323 delread~ dline1 400;
#X obj 299 272 r~ mtapdelay;
#X obj 299 375 dac~;
#X obj 299 297 delwrite~ dline3 2000;
#X obj 299 322 delread~ dline3 1000;
#X obj 299 347 *~ 0.4;
#X obj 450 272 r~ mtapdelay;
#X obj 429 375 dac~;
#X obj 450 348 *~ 0.7;
#X obj 450 297 delwrite~ dline4 2000;
#X obj 450 322 delread~ dline4 1300;
#X connect 0 0 1 0;
#X connect 1 0 2 0;
#X connect 3 0 6 0;
#X connect 3 0 4 0;
#X connect 4 0 5 0;
#X connect 5 0 8 0;
#X connect 6 0 8 0;
#X connect 7 0 11 0;
#X connect 7 0 10 0;
#X connect 8 0 7 1;
#X connect 9 0 7 0;
#X connect 12 0 15 0;
#X connect 14 0 15 1;
#X connect 17 0 18 0;
#X connect 19 0 20 0;
#X connect 21 0 24 0;
#X connect 23 0 22 1;
#X connect 25 0 23 0;
#X connect 26 0 19 0;
#X connect 27 0 29 0;
#X connect 30 0 31 0;
#X connect 31 0 28 0;
#X connect 32 0 35 0;
#X connect 34 0 33 1;
#X connect 36 0 34 0;
