#N canvas 548 52 439 199 10;
#X obj 12 28 mtof;
#X obj 12 56 phasor~;
#X obj 12 89 expr~ (($v1 > 0.5) * 2 - 1);
#X obj 6 154 dac~;
#X obj 15 3 hsl 128 15 0 127 0 0 empty empty empty -2 -8 0 10 -262144
-1 -1 1500 1;
#X text 62 114 This [expr~] generates a square wave with values of
-1 and 1 As an audio signal \, it is normalized but not antialiased.
;
#X connect 0 0 1 0;
#X connect 1 0 2 0;
#X connect 2 0 3 0;
#X connect 2 0 3 1;
#X connect 4 0 0 0;
