#N canvas 711 112 95 165 10;
#X floatatom 19 18 5 0 0 0 - - -;
#X floatatom 19 68 5 0 0 0 - - -;
#X floatatom 19 119 5 0 0 0 - - -;
#X obj 19 43 dbtopow;
#X obj 19 93 powtodb;
#X connect 0 0 3 0;
#X connect 1 0 4 0;
#X connect 3 0 1 0;
#X connect 4 0 2 0;
