#N canvas 711 112 238 113 10;
#X obj 19 59 +;
#X floatatom 19 17 5 0 0 0 - - -;
#X floatatom 34 38 5 0 0 0 - - -;
#X floatatom 19 81 5 0 0 0 - - -;
#X floatatom 111 13 5 0 0 0 - - -;
#X floatatom 126 33 5 0 0 0 - - -;
#X obj 111 54 -;
#X floatatom 111 79 5 0 0 0 - - -;
#X floatatom 173 13 5 0 0 0 - - -;
#X floatatom 188 33 5 0 0 0 - - -;
#X obj 173 54 -;
#X floatatom 173 79 5 0 0 0 - - -;
#X connect 0 0 3 0;
#X connect 1 0 0 0;
#X connect 2 0 0 1;
#X connect 4 0 6 0;
#X connect 5 0 6 1;
#X connect 6 0 7 0;
#X connect 8 0 10 0;
#X connect 9 0 10 1;
#X connect 10 0 11 0;
