#N canvas 711 112 72 165 10;
#X floatatom 19 18 5 0 0 0 - - -;
#X obj 19 43 mtof;
#X floatatom 19 68 5 0 0 0 - - -;
#X obj 19 93 ftom;
#X floatatom 19 119 5 0 0 0 - - -;
#X connect 0 0 1 0;
#X connect 1 0 2 0;
#X connect 2 0 3 0;
#X connect 3 0 4 0;
