#N canvas 711 112 190 192 10;
#X floatatom 11 13 5 0 0 0 - - -;
#X floatatom 136 13 5 0 0 0 - - -;
#X obj 11 50 >;
#X obj 38 50 >=;
#X obj 65 50 ==;
#X obj 92 50 !=;
#X obj 119 50 <;
#X obj 146 50 <=;
#X floatatom 11 73 5 0 0 0 - - -;
#X floatatom 38 91 5 0 0 0 - - -;
#X floatatom 65 109 5 0 0 0 - - -;
#X floatatom 92 128 5 0 0 0 - - -;
#X floatatom 119 146 5 0 0 0 - - -;
#X floatatom 146 164 5 0 0 0 - - -;
#X connect 0 0 2 0;
#X connect 0 0 3 0;
#X connect 0 0 4 0;
#X connect 0 0 5 0;
#X connect 0 0 6 0;
#X connect 0 0 7 0;
#X connect 1 0 2 1;
#X connect 1 0 3 1;
#X connect 1 0 4 1;
#X connect 1 0 5 1;
#X connect 1 0 6 1;
#X connect 1 0 7 1;
#X connect 2 0 8 0;
#X connect 3 0 9 0;
#X connect 4 0 10 0;
#X connect 5 0 11 0;
#X connect 6 0 12 0;
#X connect 7 0 13 0;
