#N canvas 736 60 515 621 10;
#X obj 17 15 tgl 15 0 empty empty empty 17 7 0 10 -262144 -1 -1 0 1
;
#X obj 17 47 metro;
#X floatatom 44 15 5 0 0 0 - - -;
#X obj 17 81 f;
#X obj 60 81 + 1;
#X obj 17 115 mod 16;
#X obj 17 181 select 0 1 2 3 4 5 6 7 8 9 10 11 12 13 14 15;
#X obj 17 149 hradio 15 1 0 16 empty empty empty 0 -8 0 10 -262144
-1 -1 15;
#X obj 32 214 vsl 15 128 0 127 0 0 empty empty empty 0 -9 0 10 -262144
-1 -1 7800 1;
#X obj 17 352 f;
#X obj 59 214 vsl 15 128 0 127 0 0 empty empty empty 0 -9 0 10 -262144
-1 -1 8500 1;
#X obj 44 352 f;
#X obj 85 214 vsl 15 128 0 127 0 0 empty empty empty 0 -9 0 10 -262144
-1 -1 8500 1;
#X obj 70 352 f;
#X obj 111 214 vsl 15 128 0 127 0 0 empty empty empty 0 -9 0 10 -262144
-1 -1 8300 1;
#X obj 96 352 f;
#X obj 137 214 vsl 15 128 0 127 0 0 empty empty empty 0 -9 0 10 -262144
-1 -1 7500 1;
#X obj 122 352 f;
#X obj 164 214 vsl 15 128 0 127 0 0 empty empty empty 0 -9 0 10 -262144
-1 -1 7500 1;
#X obj 149 352 f;
#X obj 191 214 vsl 15 128 0 127 0 0 empty empty empty 0 -9 0 10 -262144
-1 -1 7300 1;
#X obj 176 352 f;
#X obj 217 214 vsl 15 128 0 127 0 0 empty empty empty 0 -9 0 10 -262144
-1 -1 7200 1;
#X obj 202 352 f;
#X obj 243 214 vsl 15 128 0 127 0 0 empty empty empty 0 -9 0 10 -262144
-1 -1 7900 1;
#X obj 228 352 f;
#X obj 270 214 vsl 15 128 0 127 0 0 empty empty empty 0 -9 0 10 -262144
-1 -1 7600 1;
#X obj 255 352 f;
#X obj 296 214 vsl 15 128 0 127 0 0 empty empty empty 0 -9 0 10 -262144
-1 -1 7800 1;
#X obj 281 352 f;
#X obj 322 214 vsl 15 128 0 127 0 0 empty empty empty 0 -9 0 10 -262144
-1 -1 8200 1;
#X obj 307 352 f;
#X obj 348 214 vsl 15 128 0 127 0 0 empty empty empty 0 -9 0 10 -262144
-1 -1 8000 1;
#X obj 333 352 f;
#X obj 374 214 vsl 15 128 0 127 0 0 empty empty empty 0 -9 0 10 -262144
-1 -1 7700 1;
#X obj 359 352 f;
#X obj 400 214 vsl 15 128 0 127 0 0 empty empty empty 0 -9 0 10 -262144
-1 -1 7400 1;
#X obj 385 352 f;
#X obj 426 214 vsl 15 128 0 127 0 0 empty empty empty 0 -9 0 10 -262144
-1 -1 7800 1;
#X obj 411 352 f;
#X obj 17 410 mtof;
#X obj 17 461 phasor~;
#X obj 41 501 * 1.5;
#X obj 16 538 bp~ 220 5;
#X obj 16 582 dac~;
#X text 106 21 use the counter from 'counter.pd';
#X text 104 404 [vslider] describes a value between 0-127 for each
[f] step of the sequencer. the value is only sent when the counter
reaches that step.;
#X text 103 462 [phasor~] gets a frequency from [mtof];
#X text 103 501 multiply the frequency from [mtof] by 1.5 and send
it to the [bp~] filter so that the center frequency is a half-octabe
above that of [phasor~].;
#X connect 0 0 1 0;
#X connect 1 0 3 0;
#X connect 2 0 1 1;
#X connect 3 0 4 0;
#X connect 3 0 5 0;
#X connect 4 0 3 1;
#X connect 5 0 7 0;
#X connect 6 0 9 0;
#X connect 6 1 11 0;
#X connect 6 2 13 0;
#X connect 6 3 15 0;
#X connect 6 4 17 0;
#X connect 6 5 19 0;
#X connect 6 6 21 0;
#X connect 6 7 23 0;
#X connect 6 8 25 0;
#X connect 6 9 27 0;
#X connect 6 10 29 0;
#X connect 6 11 31 0;
#X connect 6 12 33 0;
#X connect 6 13 35 0;
#X connect 6 14 37 0;
#X connect 6 15 39 0;
#X connect 7 0 6 0;
#X connect 8 0 9 1;
#X connect 9 0 40 0;
#X connect 10 0 11 1;
#X connect 11 0 40 0;
#X connect 12 0 13 1;
#X connect 13 0 40 0;
#X connect 14 0 15 1;
#X connect 15 0 40 0;
#X connect 16 0 17 1;
#X connect 17 0 40 0;
#X connect 18 0 19 1;
#X connect 19 0 40 0;
#X connect 20 0 21 1;
#X connect 21 0 40 0;
#X connect 22 0 23 1;
#X connect 23 0 40 0;
#X connect 24 0 25 1;
#X connect 25 0 40 0;
#X connect 26 0 27 1;
#X connect 27 0 40 0;
#X connect 28 0 29 1;
#X connect 29 0 40 0;
#X connect 30 0 31 1;
#X connect 31 0 40 0;
#X connect 32 0 33 1;
#X connect 33 0 40 0;
#X connect 34 0 35 1;
#X connect 35 0 40 0;
#X connect 36 0 37 1;
#X connect 37 0 40 0;
#X connect 38 0 39 1;
#X connect 39 0 40 0;
#X connect 40 0 41 0;
#X connect 40 0 42 0;
#X connect 41 0 43 0;
#X connect 42 0 43 1;
#X connect 43 0 44 0;
#X connect 43 0 44 1;
