#N canvas 376 140 559 363 10;
#N canvas 980 244 450 300 input_stage 1;
#X obj 23 56 trigger float float bang;
#X obj 23 134 outlet float;
#X obj 93 175 outlet float;
#X obj 164 216 outlet bang;
#X obj 23 21 key;
#X obj 54 21 notein 1;
#X connect 0 0 1 0;
#X connect 0 1 2 0;
#X connect 0 2 3 0;
#X connect 5 0 0 0;
#X restore 25 31 pd input_stage;
#N canvas 889 333 182 292 oscillator_stage 0;
#X obj 18 20 inlet float;
#X obj 18 57 mtof;
#X obj 82 106 * 0.99;
#X obj 18 163 phasor~;
#X obj 82 163 phasor~;
#X obj 18 245 outlet~ audio;
#X obj 18 208 *~ 0.5;
#X connect 0 0 1 0;
#X connect 1 0 3 0;
#X connect 1 0 2 0;
#X connect 2 0 4 0;
#X connect 3 0 6 0;
#X connect 4 0 6 0;
#X connect 6 0 5 0;
#X restore 25 81 pd oscillator_stage;
#N canvas 923 420 454 391 filter_stage 0;
#X obj 13 20 inlet~ audio;
#X obj 119 21 inlet float;
#X obj 119 89 mtof;
#X obj 119 117 * 1.5;
#X obj 119 146 pack 0 300;
#X obj 119 179 line~;
#X floatatom 127 219 5 0 0 0 - - -;
#X obj 13 256 vcf~ 220 3;
#X obj 13 322 outlet~ audio;
#X connect 0 0 7 0;
#X connect 1 0 2 0;
#X connect 2 0 3 0;
#X connect 3 0 4 0;
#X connect 4 0 5 0;
#X connect 5 0 7 1;
#X connect 6 0 7 2;
#X connect 7 0 8 0;
#X restore 25 145 pd filter_stage;
#N canvas 820 398 334 261 amp_stage 0;
#X obj 17 16 inlet~ audio;
#X obj 122 15 inlet bang;
#X obj 32 151 vline~;
#X msg 122 97 1 150 \, 0.9 150 150 \, 0 1000 500;
#X obj 17 180 *~;
#X obj 17 222 outlet~ audio;
#X connect 0 0 4 0;
#X connect 1 0 3 0;
#X connect 2 0 4 1;
#X connect 3 0 2 0;
#X connect 4 0 5 0;
#X restore 25 230 pd amp_stage;
#X obj 25 308 dac~;
#X connect 0 0 1 0;
#X connect 0 1 2 1;
#X connect 0 2 3 1;
#X connect 1 0 2 0;
#X connect 2 0 3 0;
#X connect 3 0 4 0;
#X connect 3 0 4 1;
