#N canvas 778 130 412 280 10;
#X floatatom 12 -11 5 0 0 0 - - -;
#X floatatom 46 -11 5 0 0 0 - - -;
#X floatatom 80 -11 5 0 0 0 - - -;
#X obj 14 25 pack f f f;
#X obj 14 61 print;
#X msg 149 -11 symbol cue;
#X floatatom 226 -10 5 0 0 0 - - -;
#X floatatom 264 -10 5 0 0 0 - - -;
#X obj 180 36 pack s f f;
#X obj 180 60 print;
#X msg 30 119 symbol foo;
#X obj 94 186 print;
#X obj 94 157 pack s s s;
#X msg 110 119 symbol bar;
#X msg 189 119 symbol baz;
#X connect 0 0 3 0;
#X connect 1 0 3 1;
#X connect 2 0 3 2;
#X connect 3 0 4 0;
#X connect 5 0 8 0;
#X connect 6 0 8 1;
#X connect 7 0 8 2;
#X connect 8 0 9 0;
#X connect 10 0 12 0;
#X connect 12 0 11 0;
#X connect 13 0 12 1;
#X connect 13 0 12 2;
#X connect 14 0 12 2;
