#N canvas 747 81 433 464 10;
#X obj -79 261 route pitch amplitude panning reverb;
#X msg -45 192 pitch 60 \, amplitude 120 \, panning -1 \, reverb 0.6
;
#X msg -47 142 panning \$1;
#X floatatom -47 118 5 0 0 0 - - -;
#X msg -62 87 amplitude 55;
#X msg -79 52 pitch 69;
#X floatatom -79 338 5 0 0 0 - - -;
#X floatatom -26 338 5 0 0 0 - - -;
#X floatatom 27 338 5 0 0 0 - - -;
#X floatatom 80 338 5 0 0 0 - - -;
#X obj -79 434 print PITCH;
#X obj -26 414 print AMPLITUDE;
#X obj 27 394 print PANNING;
#X obj 80 374 print REVERB;
#X text -77 18 send commands - fixed or variable ones - separately
;
#X text -39 214 send all commands in multiple messages written in the
same message box;
#X connect 0 0 6 0;
#X connect 0 1 7 0;
#X connect 0 2 8 0;
#X connect 0 3 9 0;
#X connect 1 0 0 0;
#X connect 2 0 0 0;
#X connect 3 0 2 0;
#X connect 4 0 0 0;
#X connect 5 0 0 0;
#X connect 6 0 10 0;
#X connect 7 0 11 0;
#X connect 8 0 12 0;
#X connect 9 0 13 0;
