#N canvas 747 81 472 197 10;
#X floatatom -139 4 5 0 0 0 - - -;
#X symbolatom -66 7 10 0 0 0 - - -;
#X obj -139 73 print;
#X obj -66 70 print;
#X obj 24 70 print;
#X obj 110 69 print;
#X msg -139 40 time \$1;
#X msg -66 40 cue \$1 now;
#X msg 24 40 \$2 \$1 5;
#X msg 24 5 22.7 hello;
#X msg 110 39 play \$2 before \$3 but after \$1;
#X msg 110 5 1 2 3;
#X text -137 134 arguments indexes start at 1 not 0 \, and can be used
in any order;
#X connect 0 0 6 0;
#X connect 1 0 7 0;
#X connect 6 0 2 0;
#X connect 7 0 3 0;
#X connect 8 0 4 0;
#X connect 9 0 8 0;
#X connect 10 0 5 0;
#X connect 11 0 10 0;
