#N canvas 714 357 419 189 10;
#X text 26 6 numbers;
#X msg 22 47 5;
#X msg 66 46 float 7;
#X obj 22 97 float;
#X floatatom 22 154 5 0 0 0 - - -;
#X text 171 7 symbols;
#X symbolatom 141 153 10 0 0 0 - - -;
#X msg 141 44 symbol hello;
#X msg 161 72 symbol byeee;
#X obj 141 117 symbol;
#X text 308 7 lists;
#X msg 282 45 1 2 3;
#X msg 303 79 list 4.1 5.2 6.3;
#X obj 282 117 unpack f f f;
#X floatatom 282 156 5 0 0 0 - - -;
#X floatatom 316 156 5 0 0 0 - - -;
#X floatatom 351 156 5 0 0 0 - - -;
#X connect 1 0 3 0;
#X connect 2 0 3 0;
#X connect 3 0 4 0;
#X connect 7 0 9 0;
#X connect 8 0 9 0;
#X connect 9 0 6 0;
#X connect 11 0 13 0;
#X connect 12 0 13 0;
#X connect 13 0 14 0;
#X connect 13 1 15 0;
#X connect 13 2 16 0;
