#N canvas 747 81 228 291 10;
#X floatatom -104 11 5 0 0 0 - - -;
#X floatatom -68 11 5 0 0 0 - - -;
#X obj -89 54 pack f f s;
#X symbolatom -32 11 10 0 0 0 - - -;
#X obj -53 109 print PACKED;
#X obj -89 154 unpack f f s;
#X floatatom -89 194 5 0 0 0 - - -;
#X floatatom -53 194 5 0 0 0 - - -;
#X symbolatom -17 194 10 0 0 0 - - -;
#N canvas 776 552 450 300 sample-name 0;
#X obj 30 21 inlet;
#X obj 30 62 print SAMPLENAME;
#X connect 0 0 1 0;
#X restore -17 216 pd sample-name;
#N canvas 694 429 450 300 amplitude 0;
#X obj 21 108 print amplitude;
#X obj 21 28 inlet;
#X connect 1 0 0 0;
#X restore -53 237 pd amplitude;
#N canvas 736 509 326 123 midi-pitch 0;
#X obj 25 21 inlet;
#X obj 25 77 print PITCH;
#X connect 0 0 1 0;
#X restore -88 258 pd midi-pitch;
#X msg -89 79 \$1 \$2 \$3;
#X connect 0 0 2 0;
#X connect 1 0 2 1;
#X connect 2 0 12 0;
#X connect 3 0 2 2;
#X connect 5 0 6 0;
#X connect 5 1 7 0;
#X connect 5 2 8 0;
#X connect 6 0 11 0;
#X connect 7 0 10 0;
#X connect 8 0 9 0;
#X connect 12 0 4 0;
#X connect 12 0 5 0;
