#N canvas 21 89 567 522 10;
#X obj 15 27 hsl 128 15 0 127 0 0 empty empty empty -2 -8 0 10 -262144
-1 -1 4800 1;
#X obj 12 51 mtof;
#X obj 12 78 phasor~;
#X obj 12 105 expr~ $v1 > 0.5;
#X obj 177 104 expr~ $v1 > 0.5;
#X obj 177 78 phasor~;
#X obj 177 52 mtof;
#X obj 180 27 hsl 128 15 0 127 0 0 empty empty empty -2 -8 0 10 -262144
-1 -1 0 1;
#X obj 39 331 expr~ $v1 > 0.5;
#X obj 39 302 phasor~;
#X floatatom 39 274 5 0 0 0 - - -;
#X text 38 247 SQUARE WAVE LFO;
#X text 9 4 SQUARE WAVE OSC;
#X text 177 5 SQUARE WAVE OSC;
#X text 160 180 && returns 0 or 1 if false/true;
#X text 180 268;
#X obj 5 503 dac~;
#X obj 85 487 tabwrite~ logic;
#N canvas 0 22 450 278 (subpatch) 0;
#X array logic 100 float 1;
#A 0 1 1 1 1 1 1 1 1 1 1 1 1 1 1 1 1 1 1 1 1 1 1 1 1 1 1 1 1 1 1 1
1 1 1 1 1 1 1 1 1 1 1 1 1 1 1 1 1 1 1 1 1 1 1 1 1 1 1 1 1 1 1 1 1 1
1 1 1 1 1 1 1 1 1 1 1 1 1 1 1 1 1 1 1 1 1 1 1 1 1 1 1 1 1 1 1 1 1 1
1;
#X coords 0 1 99 -1 200 140 1;
#X restore 319 364 graph;
#X obj 116 415 tgl 15 0 empty empty empty 17 7 0 10 -262144 -1 -1 1
1;
#X obj 97 457 metro 100;
#X text 135 366 returns 0/1 depending on if v1/v2 are both 0/1;
#X obj 11 182 expr~ $v1 && $v2;
#X obj 11 369 expr~ $v1 || $v2;
#X connect 0 0 1 0;
#X connect 1 0 2 0;
#X connect 2 0 3 0;
#X connect 3 0 22 0;
#X connect 4 0 22 1;
#X connect 5 0 4 0;
#X connect 6 0 5 0;
#X connect 7 0 6 0;
#X connect 8 0 23 1;
#X connect 9 0 8 0;
#X connect 10 0 9 0;
#X connect 19 0 20 0;
#X connect 20 0 17 0;
#X connect 22 0 23 0;
#X connect 23 0 16 0;
#X connect 23 0 16 1;
#X connect 23 0 17 0;
