#N canvas 720 137 468 341 10;
#X msg 27 21 bang;
#X obj 80 80 delay 1000;
#X obj 27 252 line;
#X msg 27 152 1 1000;
#X msg 80 206 0 1000;
#X floatatom 27 297 5 0 0 0 - - -;
#X text 100 105 [delay] will wait 1000ms after the a 'bang' \, after
1000ms it passes the bang to the second trigger;
#X text 101 153 go to 1 in 1000ms;
#X text 154 205 go to 0 in 1000ms;
#X connect 0 0 3 0;
#X connect 0 0 1 0;
#X connect 1 0 4 0;
#X connect 2 0 5 0;
#X connect 3 0 2 0;
#X connect 4 0 2 0;
